<?xml version="1.0" standalone="no"?>
<!DOCTYPE svg PUBLIC "-//W3C//DTD SVG 1.1//EN" "http://www.w3.org/Graphics/SVG/1.1/DTD/svg11.dtd">
<?xml-stylesheet href="styles.css" type="text/css"?>


<svg xmlns:xlink="http://www.w3.org/1999/xlink"
     xmlns:xs="http://www.w3.org/2001/XMLSchema"
     xmlns:math="http://www.w3.org/2005/xpath-functions/math"
     xmlns="http://www.w3.org/2000/svg"
     width="900"
     height="600"
     style="background-image: url(bg.png); background-repeat: repeat-x; background-position: bottom">

  <script xlink:href="clock.js" />

  <rect class="floor" x="0" y="594" width="550" height="6" style="fill:blue; opacity: 0.5" />
  <rect class="floor" x="780" y="594" width="120" height="6" style="fill:blue; opacity: 0.5" />
  <rect class="floor" x="550" y="580" width="230" height="20" style="fill: #5e91fe" />
  

  <rect class="floor" x="200" y="530" width="20" height="20" fill="url(#block)"/>

  <rect class="floor" x="100" y="470" width="20" height="20" fill="url(#block)"/>

  <rect class="floor" x="20" y="420" width="20" height="20" fill="url(#block)"/>
  <rect class="floor" x="40" y="420" width="20" height="20" fill="url(#block)"/>

  <rect class="floor" x="150" y="380" width="20" height="20" fill="url(#block)"/>
  <rect class="floor" x="170" y="380" width="20" height="20" fill="url(#block)"/>
  <rect class="floor" x="190" y="380" width="20" height="20" fill="url(#block)"/>
  <rect class="floor" x="210" y="380" width="20" height="20" fill="url(#block)"/>
  <rect class="floor" x="230" y="380" width="20" height="20" fill="url(#block)"/>



  <rect class="floor" x="400" y="350" width="20" height="20" fill="url(#block)"/>
  <rect class="floor" x="420" y="350" width="20" height="20" fill="url(#block)"/>
  <rect class="floor" x="440" y="350" width="20" height="20" fill="url(#block)"/>
  <rect class="floor" x="460" y="350" width="20" height="20" fill="url(#block)"/>
  <rect class="floor" x="480" y="350" width="20" height="20" fill="url(#block)"/>
  <rect class="floor" x="500" y="350" width="20" height="20" fill="url(#block)"/>

  <rect class="flag" x="850" y="525" width="37" height="70" fill="url(#flag)" />

  <rect class="stopwatch" x="0" y="0" width="100" height="45" style="fill: white; opacity: 0.5" />

  <defs>
    <pattern id="block" patternUnits="objectBoundingBox" width="20" height="20">
      <image xlink:href="block.png" x="0" y="0" width="20" height="20" />
    </pattern>
  </defs>

  <defs>
    <pattern id="flag" patternUnits="objectBoundingBox" width="37" height="70">
      <image xlink:href="flag.png" x="0" y="0" width="37" height="70" />
    </pattern>
  </defs>

	<defs>
	<filter id="filter" x="0" y="0">
	<feGaussianBlur stdDeviation=".4"/>
	</filter>
	
 </defs>

  <circle id="cloud" cx="350" cy="80" r="25" fill="#ffccff" filter="url(#filter)"/>
  <circle id="cloud" cx="330" cy="120" r="20" fill="#ffccff" filter="url(#filter)"/>
  <circle id="cloud" cx="290" cy="100" r="20" fill="#ffccff" filter="url(#filter)"/>
  <circle id="cloud" cx="380" cy="125" r="15" fill="#ffccff" filter="url(#filter)"/>
  <circle id="cloud" cx="420" cy="115" r="17" fill="#ffccff" filter="url(#filter)"/>
  <circle id="cloud" cx="405" cy="65" r="13" fill="#ffccff" filter="url(#filter)"/>

  <circle id="cloud2" cx="550" cy="280" r="25" fill="#ffccff" filter="url(#filter)"/>
  <circle id="cloud2" cx="570" cy="320" r="20" fill="#ffccff" filter="url(#filter)"/>
  <circle id="cloud2" cx="590" cy="280" r="20" fill="#ffccff" filter="url(#filter)"/>
  <circle id="cloud2" cx="520" cy="305" r="15" fill="#ffccff" filter="url(#filter)"/>
  <circle id="cloud2" cx="480" cy="295" r="17" fill="#ffccff" filter="url(#filter)"/>
  <circle id="cloud2" cx="495" cy="245" r="13" fill="#ffccff" filter="url(#filter)"/>
    


</svg>