<?xml version="1.0" standalone="no"?>
<!DOCTYPE svg PUBLIC "-//W3C//DTD SVG 1.1//EN" "http://www.w3.org/Graphics/SVG/1.1/DTD/svg11.dtd">
<?xml-stylesheet href="styles.css" type="text/css"?>


<svg xmlns:xlink="http://www.w3.org/1999/xlink"
     xmlns:xs="http://www.w3.org/2001/XMLSchema"
     xmlns:math="http://www.w3.org/2005/xpath-functions/math"
     xmlns="http://www.w3.org/2000/svg"
     width="900"
     height="600"
     style="background-image: url(bg.png); background-repeat: repeat-x; background-position: bottom">

  <!-- <script xlink:href="clock.js" /> -->


	<defs>
	  <filter id="filter" x="0" y="0">
	  <feGaussianBlur stdDeviation=".4"/>
	</filter>
	
 </defs>

  <circle id="cloud" cx="350" cy="80" r="25" fill="#ffccff" filter="url(#filter)"/>
  <circle id="cloud" cx="330" cy="120" r="20" fill="#ffccff" filter="url(#filter)"/>
  <circle id="cloud" cx="290" cy="100" r="20" fill="#ffccff" filter="url(#filter)"/>
  <circle id="cloud" cx="380" cy="125" r="15" fill="#ffccff" filter="url(#filter)"/>
  <circle id="cloud" cx="420" cy="115" r="17" fill="#ffccff" filter="url(#filter)"/>
  <circle id="cloud" cx="405" cy="65" r="13" fill="#ffccff" filter="url(#filter)"/>

  <circle id="cloud2" cx="550" cy="300" r="25" fill="#ffccff" filter="url(#filter)"/>
  <circle id="cloud2" cx="570" cy="340" r="20" fill="#ffccff" filter="url(#filter)"/>
  <circle id="cloud2" cx="590" cy="300" r="20" fill="#ffccff" filter="url(#filter)"/>
  <circle id="cloud2" cx="520" cy="325" r="15" fill="#ffccff" filter="url(#filter)"/>
  <circle id="cloud2" cx="480" cy="315" r="17" fill="#ffccff" filter="url(#filter)"/>
  <circle id="cloud2" cx="495" cy="265" r="13" fill="#ffccff" filter="url(#filter)"/>
    

  <rect class="floor" x="0" y="594" width="550" height="6" style="fill:blue; opacity: 0.5" />
  <rect class="floor" x="780" y="594" width="120" height="6" style="fill:blue; opacity: 0.5" />
  <rect  x="550" y="580" width="230" height="20" style="fill: #5e91fe" />
  

  <rect class="floor" x="200" y="530" width="20" height="20" fill="url(#block)"/>

  <rect class="floor" x="100" y="470" width="20" height="20" fill="url(#block)"/>

  <rect class="floor" x="20" y="420" width="20" height="20" fill="url(#block)"/>
  <rect class="floor" x="40" y="420" width="20" height="20" fill="url(#block)"/>

  <rect class="floor" x="150" y="380" width="20" height="20" fill="url(#block)"/>
  <rect class="floor" x="170" y="380" width="20" height="20" fill="url(#block)"/>
  <rect class="floor" x="190" y="380" width="20" height="20" fill="url(#block)"/>
  <rect class="floor" x="210" y="380" width="20" height="20" fill="url(#block)"/>
  <rect class="floor" x="230" y="380" width="20" height="20" fill="url(#block)"/>



  <rect class="floor" x="400" y="350" width="20" height="20" fill="url(#block)"/>
  <rect class="floor" x="420" y="350" width="20" height="20" fill="url(#block)"/>
  <rect class="floor" x="440" y="350" width="20" height="20" fill="url(#block)"/>
  <rect class="floor" x="460" y="350" width="20" height="20" fill="url(#block)"/>
  <rect class="floor" x="480" y="350" width="20" height="20" fill="url(#block)"/>
  <rect class="floor" x="500" y="350" width="20" height="20" fill="url(#block)"/>

  <rect class="flag" x="850" y="525" width="37" height="70" fill="url(#flag)" />


  <rect id="gameOverBox" class="gameWinBox" x="210" y="140" width="480" height="360" fill="url(#g_over)" style="display: none;" />
  <rect id="restartGame" x="370" y="380" width="160" height="40" />

  <rect id="player" x="50" y="525" width="23" height="35" fill="url(#mag)"/>

  <rect class="stopwatchBox" x="0" y="0" width="130" height="45" style="fill: white; opacity: 0.5" />
  <text class="stopwatchText" x="10" y="30" font-size="30" fill="black">
    00:00
  </text>
  <defs>
    <pattern id="block" patternUnits="objectBoundingBox" width="1" height="1">
      <image xlink:href="block.png" x="0" y="0" width="20" height="20" />
    </pattern>
  </defs>

  <defs>
    <pattern id="flag" patternUnits="objectBoundingBox" width="1" height="1">
      <image xlink:href="flag.png" x="0" y="0" width="37" height="70" />
    </pattern>
  </defs>

  <defs>
    <pattern id="g_over" patternUnits="objectBoundingBox" width="1" height="1">
      <image xlink:href="game_over.png" x="0" y="0" width="480" height="360" />
    </pattern>
  </defs>

    <defs>
    <pattern id="mag" patternUnits="objectBoundingBox" width="1" height="1">
      <image xlink:href="mag_czarodziej.png" x="0" y="0" width="23" height="35" />
    </pattern>
  </defs>

  <defs>
    <pattern id="win" patternUnits="objectBoundingBox" width="1" height="1">
      <image xlink:href="you_win.png" x="0" y="0" width="255" height="255" />
    </pattern>
  </defs>


  <script xlink:href="clock.js" />
  <script xlink:href="main.js" />

</svg>